<?xml version="1.0" encoding="utf-8"?>
<svg version="1.1" xmlns="http://www.w3.org/2000/svg" xmlns:xlink="http://www.w3.org/1999/xlink" width="100%" height="100%" viewBox="-53 -205 416 468">
 <title>2D perspective transformation matrix</title>
 <desc>Comparison of the effects of applying 2D affine and perspective transformation matrices on a unit square by CMG Lee. In this example, a = 3, b = 4, c = 5, d = 6, e = 2, f = 4, g = 2 and h = 1.</desc>
 <style type="text/css">
.square  { stroke:#000000; stroke-width:2; }
.point_0 { stroke:#009900; fill:#009900; }
.point_x { stroke:#0000ff; fill:#0000ff; }
.point_1 { stroke:#cc00ff; fill:#cc00ff; }
.point_y { stroke:#cc0000; fill:#cc0000; }
.dim     { stroke:#cc9900; fill:#cc9900; }
.ghost   { stroke-dasharray:0.1,3.2; fill-opacity:0.5; }
.dashed  { stroke-dasharray:7,3; }
.matrix  { fill:#000000; }
.number  { fill:#666666; font-size:40px; }
.text    { stroke:none; }
 </style>
 <defs>
  <circle id="point_0" class="point_0" cx="0" cy="0" r="3"/>
  <circle id="point_1" class="point_1" cx="0" cy="0" r="3"/>
  <circle id="point_x" class="point_x" cx="0" cy="0" r="3"/>
  <circle id="point_y" class="point_y" cx="0" cy="0" r="3"/>
  <path id="arrowhead" d="M -5,10 L 0,0 L 5,10"/>
  <path id="dim" d="M  8,-2 q -1,1 -8,2 q  7,1  8,2 M 0,0 H 100 m -8,-2 q  1,1  8,2 q -7,1 -8,2"/>
  <path id="dashed_x" class="point_x dashed" d="M  90, -60 L 0,0"/>
  <path id="dashed_1" class="point_1 dashed" d="M 120,-120 L 0,0"/>
  <path id="dashed_y" class="point_y dashed" d="M  80,-100 L 0,0"/>
  <g id="affine">
   <use xlink:href="#point_0" transform="translate( 50, -40)"/>
   <use xlink:href="#point_x" transform="translate( 90, -60)"/>
   <use xlink:href="#point_1" transform="translate(120,-120)"/>
   <use xlink:href="#point_y" transform="translate( 80,-100)"/>
   <path class="square" d="M 50,-40 L 80,-100 L 120,-120 L 90,-60 Z"/>
  </g>
  <g id="affine_ghost">
   <use xlink:href="#affine" class="ghost"/>
   <use xlink:href="#dashed_1"/>
  </g>
  <path id="bracket" d="M -10,-5 H -15 V 50 H -10" stroke="#999999" fill="none"/>
  <g id="base">
   <g transform="translate(20,-195)" fill="#999999">
    <text class="dim text" transform="translate(0, 0)" x="0" y="0.7ex"><tspan>a</tspan><tspan x="30">b</tspan><tspan x="60">p</tspan></text>
    <text class="dim text" transform="translate(0,20)" x="0" y="0.7ex"><tspan>c</tspan><tspan x="30">d</tspan><tspan x="60">q</tspan></text>
    <text transform="translate(0,40)" x="0" y="0.7ex"><tspan x="60">1</tspan></text>
    <use xlink:href="#bracket"/>
    <use xlink:href="#bracket" transform="translate(60,0) scale(-1,1)"/>
   </g>
   <g stroke="#999999">
    <path d="M 0,-140 V 20 M -20,0 H 140"/>
    <use xlink:href="#arrowhead" transform="translate(140,0) rotate(90)"/>
    <use xlink:href="#arrowhead" transform="translate(0,-140)"/>
   </g>
   <g fill="#999999">
    <text transform="translate(-15,  13)" x="0" y="0.7ex"><tspan>0</tspan></text>
    <text transform="translate(135,  13)" x="0" y="0.7ex" font-style="italic"><tspan>x</tspan></text>
    <text transform="translate(-15,-138)" x="0" y="0.7ex" font-style="italic"><tspan>y</tspan></text>
   </g>
   <g class="ghost">
    <use xlink:href="#point_0" transform="translate( 0,  0)" />
    <use xlink:href="#point_x" transform="translate(10,  0)"/>
    <use xlink:href="#point_1" transform="translate(10,-10)"/>
    <use xlink:href="#point_y" transform="translate( 0,-10)"/>
    <rect class="square" x="0" y="-10" width="10" height="10"/>
   </g>
   <use xlink:href="#point_0" transform="translate( 50, -40)"/>
   <text class="point_0 text" transform="translate( 65, -25)" x="0" y="0"><tspan>(p,q)</tspan></text>
   <text class="point_1 text" transform="translate( 80,-125)" x="0" y="0"><tspan>(a+b+p,c+d+q)</tspan></text>
   <text class="point_y text" transform="translate( 45,-105)" x="0" y="0"><tspan>(b+p,d+q)</tspan></text>
  </g>
 </defs>
 <g font-family="Helvetica,Arial,sans-serif" font-size="16" text-anchor="middle" stroke-linecap="round" stroke-linejoin="round" stroke="none" fill="none">
  <circle cx="0" cy="0" r="99999" fill="#ffffff"/>
  <g transform="translate(0,0)">
   <use xlink:href="#base"/>
   <use xlink:href="#affine"/>
   <g class="dim">
    <path d="M 50,-40 V 10 M 80,-100 V 10 M 120,-120 V 10 M 90,-60 V 0 M 50,-40 H -10 M 80,-100 H -10 M 120,-120 H -10 M 90,-60 H 0" stroke-dasharray="1,2"/>
    <use xlink:href="#dim" transform="translate( 0,   5) scale(0.5,1)"/>
    <use xlink:href="#dim" transform="translate(50,   5) scale(0.3,1)"/>
    <use xlink:href="#dim" transform="translate(80,   5) scale(0.4,1)"/>
    <use xlink:href="#dim" transform="translate(50,  -5) scale(0.4,1)"/>
    <use xlink:href="#dim" transform="translate(90,  -5) scale(0.3,1)"/>
    <use xlink:href="#dim" transform="translate(-5,   0) scale(1,0.4) rotate(-90)"/>
    <use xlink:href="#dim" transform="translate(-5, -40) scale(1,0.6) rotate(-90)"/>
    <use xlink:href="#dim" transform="translate(-5,-100) scale(1,0.2) rotate(-90)"/>
    <use xlink:href="#dim" transform="translate( 5, -40) scale(1,0.2) rotate(-90)"/>
    <use xlink:href="#dim" transform="translate( 5, -60) scale(1,0.6) rotate(-90)"/>
    <g class="text">
     <text transform="translate( 70, -15)" x="0" y="0.7ex"><tspan>a</tspan></text>
     <text transform="translate(105, -15)" x="0" y="0.7ex"><tspan>b</tspan></text>
     <text transform="translate(100,  15)" x="0" y="0.7ex"><tspan>a</tspan></text>
     <text transform="translate( 65,  15)" x="0" y="0.7ex"><tspan>b</tspan></text>
     <text transform="translate( 25,  15)" x="0" y="0.7ex"><tspan>p</tspan></text>
     <text transform="translate( 15, -50)" x="0" y="0.7ex"><tspan>c</tspan></text>
     <text transform="translate( 15, -90)" x="0" y="0.7ex"><tspan>d</tspan></text>
     <text transform="translate(-15,-110)" x="0" y="0.7ex"><tspan>c</tspan></text>
     <text transform="translate(-15, -70)" x="0" y="0.7ex"><tspan>d</tspan></text>
     <text transform="translate(-15, -20)" x="0" y="0.7ex"><tspan>q</tspan></text>
    </g>
   </g>
   <text class="point_1 text" x="25" y="-15">(1,1)</text>
   <text class="point_x text" transform="translate(100, -42)" x="0" y="0"><tspan>(a+p,</tspan><tspan x="0" dy="1em">c+q)</tspan></text>
   <text class="matrix  text" transform="translate(125,-175)" x="0" y="0.7ex"><tspan>(affine)</tspan></text>
   <text class="matrix  text" transform="translate( 20,-155)" x="0" y="0.7ex"><tspan>0</tspan><tspan x="30">0</tspan></text>
   <text class="number  text" transform="translate(-20,-185)" x="0" y="0.7ex"><tspan>1.</tspan></text>
  </g>
 </g>
</svg>
